<?xml version="1.0" encoding="UTF-8"?><svg xmlns="http://www.w3.org/2000/svg" xmlns:xlink="http://www.w3.org/1999/xlink" height="207.3" preserveAspectRatio="xMidYMid meet" version="1.1" viewBox="147.1 111.2 136.1 207.3" width="136.1" zoomAndPan="magnify">
 <g id="surface1">
  <g id="change1_1"><path d="m234.23 217.18c-7.04-15.16-5.06-34.71-8.51-41.51-3-5.92-10.25-2.15-9.76 4.95 1.12 16.23-13.82 25.74-23.11 30.45-8.12 4.11-22.98 5.62-30.94-11.77-4.52-9.89-14.86 3.11-12.01 10.29 9.41 23.65 22.79 19.45 32.86 39.32 7.49 14.77-5.95 26.48 3.43 44.98 8.25 16.27 26.58 24.64 52.88 11.31 26.3-13.34 44.12-35.29 33.7-55.84-12.77-25.18-31.5-17.02-38.54-32.18" fill="#ed2628"/></g>
  <g id="change2_1"><path d="m226.4 219.47c-5.67-7.13-1.48-9.9-2.76-15.29-1.18-4.99-9.44-8.56-12.49-0.55-1.97 5.19-6.72 10.34-13.47 13.76-5.9 2.99-17.2 3.57-28.22-4.9-5.82-4.47-10.02 5.08-5.05 9.99 13.15 13 16.07 7.74 21.75 17.17 3.13 5.19 0.44 19.38 6.91 25.14 7.77 6.92 9.65 3.83 28.76-5.86 9.55-4.84 19.93-4.54 26.96-4.89 7.04-0.35 8.7-9.81 3.49-16.36-13.16-16.51-22.05-13.38-25.88-18.21" fill="#fff"/></g>
  <g id="change3_1"><path d="m161.34 145.66l8.51-4.32 44.81 83.22-14.39 7.29-38.93-86.19" fill="#d3d2d2"/></g>
  <g id="change4_1"><path d="m216.36 275.05l22.09-11.21-3.13-6.16-22.09 11.2 3.13 6.17" fill="#bcbbbc"/></g>
  <g id="change5_1"><path d="m205.14 246.74l17.93-9.09-1.56-3.08-17.92 9.09 1.55 3.08" fill="#1f1f20"/></g>
  <g id="change5_2"><path d="m209.7 255.73l17.93-9.09-1.56-3.08-17.93 9.08 1.56 3.09" fill="#1f1f20"/></g>
  <g id="change6_1"><path d="m219.77 269.28c0.48 0.97 0.1 2.15-0.87 2.64-0.96 0.49-2.14 0.1-2.63-0.87-0.49-0.96-0.11-2.14 0.86-2.63s2.14-0.1 2.64 0.86" fill="#918f8f"/></g>
  <g id="change6_2"><path d="m224.89 266.68c0.5 0.97 0.11 2.14-0.86 2.64-0.96 0.48-2.14 0.1-2.64-0.87-0.48-0.96-0.1-2.14 0.87-2.63s2.15-0.11 2.63 0.86" fill="#918f8f"/></g>
  <g id="change6_3"><path d="m230.02 264.08c0.5 0.97 0.11 2.15-0.86 2.63-0.96 0.49-2.14 0.11-2.63-0.86-0.49-0.96-0.1-2.14 0.86-2.63 0.97-0.49 2.15-0.11 2.63 0.86" fill="#918f8f"/></g>
  <g id="change6_4"><path d="m235.15 261.48c0.49 0.97 0.11 2.14-0.86 2.63-0.97 0.5-2.15 0.11-2.63-0.86-0.5-0.96-0.11-2.14 0.86-2.63 0.96-0.49 2.14-0.1 2.63 0.86" fill="#918f8f"/></g>
  <g id="change4_2"><path d="m165.33 120.49c1.95 3.85 7.82 22.2 8.99 24.51s-0.56 3.73-0.56 3.73l-8.88 4.5s-3.06-0.39-4.49-3.21c-1.43-2.83-2.84-28.76-3.59-30.91-2.76-7.83 9.56-7.86 8.53 1.38" fill="#bcbbbc"/></g>
  <g id="change6_5"><path d="m227.29 261.75l-56.53-111.5-1.03 0.52 56.54 111.5" fill="#918f8f"/></g>
  <g id="change6_6"><path d="m230.67 260.03l-57.95-110.78-1.02 0.53 57.95 110.79" fill="#918f8f"/></g>
  <g id="change6_7"><path d="m223.64 263.61l-54.6-112.48-1.04 0.51 54.6 112.48" fill="#918f8f"/></g>
  <g id="change6_8"><path d="m219.92 265.51l-52.81-113.39-1.04 0.49 52.8 113.39" fill="#918f8f"/></g>
  <g id="change6_9"><path d="m168.46 133.14c0.41 0.81 0.09 1.79-0.71 2.2-0.81 0.41-1.79 0.08-2.2-0.72-0.41-0.81-0.09-1.79 0.72-2.2 0.8-0.4 1.79-0.08 2.19 0.72" fill="#918f8f"/></g>
  <g id="change6_10"><path d="m170.1 137.94c0.41 0.8 0.09 1.79-0.72 2.19-0.8 0.41-1.79 0.09-2.19-0.72-0.41-0.8-0.09-1.78 0.71-2.19 0.81-0.41 1.79-0.09 2.2 0.72" fill="#918f8f"/></g>
  <g id="change6_11"><path d="m171.64 143.02c0.41 0.8 0.09 1.79-0.72 2.19-0.8 0.41-1.79 0.09-2.19-0.71-0.41-0.81-0.09-1.79 0.72-2.2 0.8-0.41 1.78-0.09 2.19 0.72" fill="#918f8f"/></g>
  <g id="change6_12"><path d="m166.79 127.8c0.41 0.8 0.09 1.79-0.72 2.2-0.8 0.4-1.78 0.08-2.19-0.73-0.41-0.8-0.09-1.78 0.72-2.19 0.8-0.41 1.79-0.09 2.19 0.72" fill="#918f8f"/></g>
  <g id="change6_13"><path d="m165.31 123.3c0.41 0.81 0.08 1.79-0.72 2.2-0.81 0.41-1.79 0.08-2.2-0.72-0.41-0.81-0.09-1.79 0.72-2.2 0.8-0.4 1.79-0.08 2.2 0.72" fill="#918f8f"/></g>
  <g id="change7_1"><path d="m167.67 122.1c0.28 0.55 0.19 1.16-0.2 1.36l-3.32 1.68c-0.39 0.2-0.93-0.09-1.21-0.64s-0.19-1.16 0.2-1.36l3.32-1.68c0.39-0.19 0.93 0.09 1.21 0.64" fill="#7b7879"/></g>
  <g id="change7_2"><path d="m167.43 123.55c0.16 0.31 0.53 0.43 0.84 0.27 0.3-0.16 0.43-0.53 0.27-0.84l-1.06-2.1c-0.16-0.31-0.53-0.43-0.84-0.27-0.31 0.15-0.43 0.53-0.28 0.84l1.07 2.1" fill="#7b7879"/></g>
  <g id="change7_3"><path d="m169.24 126.55c0.28 0.56 0.19 1.16-0.2 1.36l-3.32 1.68c-0.39 0.2-0.93-0.09-1.21-0.63-0.28-0.56-0.19-1.16 0.2-1.36l3.32-1.69c0.39-0.19 0.93 0.09 1.21 0.64" fill="#7b7879"/></g>
  <g id="change7_4"><path d="m169 128c0.15 0.31 0.53 0.43 0.84 0.27 0.3-0.15 0.43-0.53 0.27-0.83l-1.06-2.1c-0.16-0.31-0.54-0.43-0.85-0.28-0.3 0.16-0.43 0.53-0.27 0.84l1.07 2.1" fill="#7b7879"/></g>
  <g id="change7_5"><path d="m170.66 132.02c0.28 0.56 0.19 1.16-0.2 1.36l-3.32 1.68c-0.39 0.2-0.93-0.08-1.21-0.63s-0.19-1.16 0.2-1.36l3.32-1.68c0.39-0.2 0.94 0.09 1.21 0.63" fill="#7b7879"/></g>
  <g id="change7_6"><path d="m170.41 133.47c0.16 0.31 0.54 0.43 0.84 0.28 0.31-0.16 0.44-0.54 0.28-0.84l-1.07-2.11c-0.15-0.3-0.53-0.42-0.84-0.27-0.3 0.16-0.42 0.53-0.27 0.84l1.06 2.1" fill="#7b7879"/></g>
  <g id="change7_7"><path d="m172.55 136.7c0.28 0.54 0.19 1.15-0.2 1.35l-3.32 1.68c-0.39 0.2-0.93-0.09-1.21-0.64s-0.19-1.15 0.2-1.35l3.32-1.69c0.39-0.19 0.93 0.09 1.21 0.65" fill="#7b7879"/></g>
  <g id="change7_8"><path d="m172.3 138.14c0.16 0.31 0.54 0.43 0.84 0.27 0.31-0.15 0.43-0.53 0.28-0.84l-1.06-2.1c-0.16-0.31-0.54-0.43-0.84-0.27-0.31 0.16-0.43 0.53-0.28 0.84l1.06 2.1" fill="#7b7879"/></g>
  <g id="change7_9"><path d="m174.2 141.72c0.28 0.55 0.19 1.16-0.19 1.35l-3.33 1.69c-0.38 0.2-0.93-0.09-1.2-0.64-0.28-0.55-0.19-1.16 0.2-1.35l3.32-1.69c0.39-0.2 0.93 0.09 1.2 0.64" fill="#7b7879"/></g>
  <g id="change7_10"><path d="m173.96 143.16c0.16 0.31 0.53 0.43 0.84 0.28s0.43-0.53 0.27-0.84l-1.06-2.1c-0.16-0.31-0.53-0.43-0.84-0.27-0.31 0.15-0.43 0.53-0.28 0.83l1.07 2.1" fill="#7b7879"/></g>
 </g>
</svg>