<?xml version="1.0" encoding="UTF-8"?><svg xmlns="http://www.w3.org/2000/svg" xmlns:xlink="http://www.w3.org/1999/xlink" height="477.8" preserveAspectRatio="xMidYMid meet" version="1.0" viewBox="-26.0 -3.3 393.4 477.8" width="393.4" zoomAndPan="magnify"><g><g id="change1_1"><path d="M162.7646,143.124c0,0,5.0791,24.6338-24.1201,28.2813s-28.8428-25.2148-26.4277-32.6162 c2.415-7.4023,17.4004-20.8711,35.0527-15.5615C164.9238,128.5381,162.7646,143.124,162.7646,143.124z" fill="#3F3F3C"/></g><g id="change1_2"><path d="M124.9043,137.0918c0,0-4.9023,20.2578-28.0791,12.6699c-23.1748-7.5879-12.7021-29.0977-8.2764-33.791 c4.4248-4.6963,20.4238-9.4922,31.7773,0.7295C131.6797,126.9229,124.9043,137.0918,124.9043,137.0918z" fill="#3F3F3C"/></g><g id="change1_3"><path d="M97.373,123.0059c0,0-10.0469,13.5234-24.8906,0.5586c-14.8457-12.9668-0.2598-25.6602,4.5156-27.7539 c4.7754-2.0957,18.1904-0.6123,23.4092,10.5771C105.624,117.5801,97.373,123.0059,97.373,123.0059z" fill="#3F3F3C"/></g><g id="change1_4"><path d="M77.6709,101.5303c0,0-12.2256,4.6836-16.5596-10.0088c-4.332-14.6934,10.5244-16.9395,14.5303-16.3223 c4.0068,0.6172,12.1865,7.1826,10.9453,16.6982C85.3428,101.4121,77.6709,101.5303,77.6709,101.5303z" fill="#3F3F3C"/></g><g id="change1_5"><path d="M62.5049,78.9443c0,0,11.0293,6.707,15.2725-2.4736c4.2441-9.1787,0.5947-33.2578-3.2012-30.1875 c-3.7949,3.0684-4.9961,10.002-4.9961,10.002s-6.6768-13.4365-9.9629-8.5732c-3.2861,4.8643-0.6123,13.5605-0.6123,13.5605 s-11.168-11.5703-12.0557-5.3369C46.0605,62.167,48.4609,73.8105,62.5049,78.9443z" fill="#3F3F3C"/></g><g id="change1_6"><path d="M271.5244,116.7998c0,0,0.5732,25.1455,29.8447,22.1563c29.2744-2.9902,22.457-31.0391,18.4453-37.71 c-4.0107-6.6729-21.6348-16.4404-37.6484-7.3076C266.1514,103.0703,271.5244,116.7998,271.5244,116.7998z" fill="#3F3F3C"/></g><g id="change1_7"><path d="M307.0703,102.4365c0,0,9.3184,18.6445,30.2031,6.0537s5.8594-31.2041,0.4922-34.7871 c-5.3652-3.583-22.0303-4.6738-30.8027,7.834C298.1865,94.0439,307.0703,102.4365,307.0703,102.4365z" fill="#3F3F3C"/></g><g id="change1_8"><path d="M330.7441,82.5371c0,0,12.8203,10.9268,24.3828-5.0352c11.5605-15.9639-5.498-25.0645-10.6221-26.0352 c-5.124-0.9727-17.8652,3.4805-20.4424,15.5557C321.4854,79.0996,330.7441,82.5371,330.7441,82.5371z" fill="#3F3F3C"/></g><g id="change1_9"><path d="M345.1309,57.1924c0,0,12.9658,1.8232,13.8936-13.4658c0.9287-15.291-14.0537-14.1484-17.8174-12.6504 c-3.7666,1.499-10.2666,9.7314-6.9248,18.7266C337.627,58.7969,345.1309,57.1924,345.1309,57.1924z" fill="#3F3F3C"/></g><g id="change2_1"><path d="M170.1094,349.876c0,0-24.998,12.1553-28.8643,27.3799c-3.8701,15.2246,30.8486,54.1602,30.8486,54.1602 l23.3789-18.5742c0,0-19.3115-18.8457-18.9355-26.6914c0.375-7.8477,31.3154-30.666,31.3154-30.666L170.1094,349.876z" fill="#F6C79D"/></g><g id="change1_10"><path d="M195.9004,450.4434c0,0,3.3271,21.0586,10.4609,21.958c7.1338,0.8975,9.3691-44.4385,8.124-55.3965 l-18.6064-2.6865L195.9004,450.4434z" fill="#3F3F3C"/></g><g id="change1_11"><path d="M156.0313,448.3057c0,0-10.6152,6.668-17.5781,7.0215c-6.96,0.3564-9.3105,6.0225-3.1094,10.2578 c3.2432,2.2197,34.3535,8.9561,50.0215,3.1855l-0.5967-17.5957l-27.9033-2.5029" fill="#3F3F3C"/></g><g id="change2_2"><path d="M231.4766,358.7861c0,0-14.7656,56.667-49.2061,94.9365l-27.3496-4.749 c0,0,35.0127-64.2861,40.2578-95.2617L231.4766,358.7861z" fill="#F6C79D"/></g><g id="change2_3"><path d="M200.4316,31.4023c-41.0664,7.1426-68.6611,45.6729-61.6367,86.0586 c7.0254,40.3848,29.9424,67.7891,87.0742,60.1904c45.3604-6.0303,68.6611-45.6709,61.6357-86.0576 C280.4805,51.207,241.4961,24.2598,200.4316,31.4023z" fill="#F6C79D"/></g><g id="change2_4"><path d="M282.6543,107.3174c0,0,13.5322-5.793,17.2324,2.6689c3.7031,8.458-5.4697,15.3711-17.0488,13.8477 L282.6543,107.3174z" fill="#F6C79D"/></g><g id="change2_5"><path d="M144.3535,129.4531c0,0-14.3955,3.0918-12.5303,12.1318c1.8643,9.0439,13.3428,9.3926,21.915,1.458 L144.3535,129.4531z" fill="#F6C79D"/></g><g id="change1_12"><path d="M207.8164,121.7891c0,0-1.3086-0.7168-2.8857-2.248c-0.3916-0.3916-0.8174-0.8193-1.2178-1.3271 c-0.4063-0.5049-0.8389-1.042-1.1973-1.6963c-0.1895-0.3154-0.3789-0.6416-0.5361-1.0117 c-0.1729-0.3574-0.3379-0.7207-0.4404-1.1465c-0.127-0.4063-0.2363-0.8252-0.2734-1.3018 c-0.0254-0.2324-0.0566-0.459-0.0684-0.6973l0.0547-0.7461c0.0967-0.9932,0.5605-1.998,1.166-2.7646l0.1094-0.1514l0.0547-0.0752 l0.0137-0.0176l0.0078-0.0088l0.1162-0.124l0.0234-0.0215l0.1885-0.1719l0.3877-0.3369c0.4355-0.3037,0.9365-0.6553,1.3428-0.7852 c0.8447-0.3896,1.7109-0.4414,2.4648-0.4463c0.7529,0.0264,1.4287,0.1543,2.001,0.3389c1.1611,0.3486,1.9873,0.8389,2.542,1.2061 c0.5508,0.3721,0.833,0.6396,0.8545,0.6475c0.4424,0.1582,0.6699,0.6436,0.5127,1.085c-0.1484,0.4131-0.5859,0.6396-1.0039,0.5352 l-0.4141-0.1055c0,0-0.3037-0.0771-0.8379-0.2139c-0.543-0.1318-1.333-0.2959-2.209-0.3525 c-0.874-0.0537-1.8281,0.0352-2.4727,0.4326c-0.2109,0.083-0.2119,0.1836-0.3447,0.2236l-0.3389,0.3584l-0.1787,0.1807 l-0.0225,0.0225c-0.1016,0.1045,0.1318-0.1387,0.1074-0.1133l-0.002,0.0039l-0.0059,0.0078L205.3008,111l-0.0332,0.0605 c-0.207,0.3125-0.3574,0.6045-0.3691,0.9922c-0.0039,0.0957-0.0234,0.1895-0.041,0.2842l0.0313,0.333 c-0.0039,0.2148,0.0547,0.46,0.125,0.708c0.127,0.4824,0.3008,1.0195,0.5479,1.5215c0.2236,0.5039,0.5,1.0088,0.7666,1.4795 c0.2852,0.4756,0.5566,0.9229,0.8086,1.3369c1.0859,1.6504,1.8633,2.7637,1.8633,2.7637c0.2852,0.4111,0.1865,0.9736-0.2246,1.2607 c-0.291,0.2031-0.6592,0.2109-0.9521,0.0527L207.8164,121.7891z" fill="#3F3F3C"/></g><g id="change3_1"><path d="M234.2686,122.5508c2.2568,8.5215,11.9463,13.3467,21.6406,10.7832 c9.6963-2.5674,15.7295-11.5566,13.4697-20.0801c-2.2539-8.5176-11.9434-13.3447-21.6387-10.7773 C238.0439,105.04,232.0127,114.0313,234.2686,122.5508z" fill="#F9705A"/></g><g id="change3_2"><path d="M159.793,138.4072c1.3262,7.627,9.4355,12.585,18.1123,11.0771c8.6826-1.5078,14.6406-8.9111,13.3174-16.54 c-1.3242-7.626-9.4355-12.585-18.1152-11.0771C164.4287,123.374,158.4688,130.7793,159.793,138.4072z" fill="#F9705A"/></g><g id="change1_13"><path d="M165.3164,115.54c0.002,0.0293-0.0576-0.3994-0.0537-1.0459c0.0146-0.6504,0.0645-1.5869,0.333-2.668 c0.1055-0.5498,0.3066-1.1191,0.5098-1.7305c0.2529-0.584,0.4648-1.2383,0.834-1.8379c0.3291-0.623,0.6895-1.2578,1.1484-1.8418 c0.4102-0.6191,0.9453-1.1553,1.4326-1.7266c0.5273-0.5352,1.1143-1.0059,1.6611-1.5c0.5898-0.4395,1.2041-0.8223,1.7803-1.2129 c0.6064-0.3359,1.2129-0.623,1.7793-0.9014c0.5654-0.2783,1.1475-0.4297,1.6602-0.6133c1.0205-0.3877,1.9316-0.4824,2.5469-0.5986 c0.6201-0.0957,0.9756-0.1338,0.9756-0.1338c0.4912-0.0508,0.9297,0.3066,0.9805,0.7979c0.0371,0.3467-0.1328,0.6689-0.4063,0.8467 l-0.082,0.0508c0,0-0.29,0.1836-0.7949,0.4736c-0.2549,0.1406-0.5576,0.3184-0.9121,0.4961 c-0.3604,0.168-0.7285,0.4277-1.1436,0.6738c-0.4043,0.2637-0.8662,0.5029-1.3135,0.8105 c-0.4424,0.3154-0.8994,0.6533-1.3906,0.9668c-0.4521,0.3701-0.9014,0.7637-1.3848,1.1279 c-0.4316,0.4248-0.9004,0.8213-1.3125,1.2686c-0.4014,0.457-0.8613,0.8662-1.2041,1.3623 c-0.1797,0.2383-0.3672,0.4717-0.5596,0.6953c-0.168,0.2441-0.335,0.4834-0.4971,0.7197 c-0.3428,0.4639-0.5967,0.9619-0.8965,1.4053c-0.2305,0.4775-0.5127,0.9082-0.7041,1.3359 c-0.4268,0.8438-0.7178,1.583-0.9258,2.1016c-0.207,0.5264-0.3008,0.7803-0.3027,0.8066c-0.0352,0.4873-0.458,0.8516-0.9434,0.8154 C165.6445,116.4482,165.2803,116.0264,165.3164,115.54z" fill="#3F3F3C"/></g><g id="change1_14"><path d="M185.8301,112.8662c1.4541,5.6133-1.916,11.3398-7.5273,12.793 c-5.6133,1.4531-11.3438-1.918-12.7949-7.5313c-1.4531-5.6084,1.918-11.3389,7.5313-12.792 C178.6504,103.8828,184.3779,107.2529,185.8301,112.8662z" fill="#3F3F3C"/></g><g id="change1_15"><path d="M230.0498,99.5322c0.0039,0.0283-0.0576-0.3994-0.0518-1.0469c0.0146-0.6494,0.0645-1.5869,0.334-2.667 c0.1025-0.5508,0.3047-1.1201,0.5078-1.7305c0.2559-0.584,0.4668-1.2412,0.835-1.8389c0.3291-0.6221,0.6885-1.2578,1.1484-1.8408 c0.4102-0.6201,0.9434-1.1553,1.4326-1.7266c0.5273-0.5371,1.1133-1.0088,1.6611-1.501c0.5889-0.4395,1.2041-0.8232,1.7783-1.2129 c0.6074-0.3369,1.2139-0.624,1.7803-0.9014c0.5654-0.2783,1.1475-0.4316,1.6592-0.6133c1.0215-0.3877,1.9336-0.4824,2.5488-0.5996 c0.6201-0.0977,0.9746-0.1338,0.9746-0.1338c0.4922-0.0508,0.9297,0.3057,0.9805,0.7969c0.0381,0.3477-0.1328,0.6699-0.4072,0.8467 l-0.0801,0.0498c0,0-0.29,0.1846-0.7959,0.4736c-0.2539,0.1406-0.5566,0.3184-0.9121,0.4971 c-0.3604,0.167-0.7295,0.4277-1.1436,0.6748c-0.4033,0.2646-0.8652,0.5029-1.3125,0.8096 c-0.4404,0.3164-0.8994,0.6553-1.3916,0.9688c-0.4512,0.3691-0.9023,0.7627-1.3857,1.1279 c-0.4277,0.4238-0.8994,0.8193-1.3115,1.2686c-0.3984,0.457-0.8613,0.8672-1.2031,1.3623 c-0.1797,0.2393-0.3662,0.4717-0.5605,0.6963c-0.167,0.2432-0.332,0.4824-0.4961,0.7197c-0.3438,0.4639-0.5977,0.96-0.8965,1.4053 c-0.2324,0.4766-0.5127,0.9072-0.7031,1.3359c-0.4258,0.8438-0.7188,1.583-0.9287,2.1006 c-0.2031,0.5273-0.2988,0.7813-0.2988,0.8076c-0.0361,0.4863-0.46,0.8516-0.9463,0.8145 C230.3799,100.4404,230.0156,100.0176,230.0498,99.5322z" fill="#3F3F3C"/></g><g id="change1_16"><path d="M250.5645,96.8555c1.4531,5.6123-1.9141,11.3398-7.5273,12.7949 c-5.6133,1.4531-11.3408-1.9189-12.7949-7.5322c-1.4531-5.6104,1.9189-11.3369,7.5313-12.7939 C243.3857,87.8711,249.1133,91.2451,250.5645,96.8555z" fill="#3F3F3C"/></g><g id="change2_6"><path d="M234.9707,180.2705l0.1211-16.0215l-36.4551,2.1572l-1.3301,13.7881c0,0,11.0488,16.4385,24.2959,13.6514 C234.8496,191.0566,234.9707,180.2705,234.9707,180.2705z" fill="#F6C79D"/></g><g id="change4_1"><path d="M226.7793,181.3691l-29.4727-2.4512c0,0-24.124,112.4609-73.2783,160.7939 c0,0,65.8779,49.4336,173.0439,30.3008c0,0-29.1855-146.291-41.7285-164.9473 C238.751,180.3818,226.7793,181.3691,226.7793,181.3691z" fill="#94B6C7"/></g><g id="change3_3"><path d="M116.0879,208.3262c0,0-20.8232-49.3398-61.8291-53.8467c-43.8896-4.8193-80.2314,66.0654-29.7773,130.873 s99.7061,83.8008,125.6221,66.3262c25.9189-17.4746,93.0264-92.7803,73.0586-146.7686 C203.1914,150.9248,138.0615,147.0303,116.0879,208.3262z" fill="#F9705A"/></g><g id="change2_7"><path d="M174.1729,263.8848l-28.1973,12.8965c0,0-20.9316-7.3398-21.8418-2.5264 c-0.9092,4.8154,8.7109,8.7383,8.7109,8.7383s-17.0117,5.292-15.6416,9.668c1.3672,4.376,13.0781,0.3447,13.0781,0.3447 s-11.625,7.3184-8.6572,10.0039c2.9697,2.6855,12.042-2.8242,12.042-2.8242s-5.2217,6.6611-4.0488,8.668 c1.1719,2.0098,9.3701-4.0684,9.3701-4.0684s-1.5322,5.1436,1.4531,5.6387c2.9893,0.4961,13.8564-10.4258,13.8564-10.4258 l35.6094-16.2539L174.1729,263.8848z" fill="#F6C79D"/></g><g id="change4_2"><path d="M250.2236,220.3975c0,0,13.2617-23.8574,0.0723-34.3613c-13.1885-10.5049-28.083-5.9043-34.5781,6.3467 c-6.4941,12.252-48.1006,66.2822-62.2021,65.1533c0,0,14.5566,33.1602,45.0811,39.5859 C198.5967,297.1221,234.0918,265.7139,250.2236,220.3975z" fill="#94B6C7"/></g><g id="change1_17"><path d="M198.3779,55.8652c0,0,14.4971,29.8135,24.9111,25.1172c10.415-4.6963,8.7832-16.7451,8.7832-16.7451 s6.0615,13.8867,12.832,12.0488c6.7715-1.8379,11.0605-10.2109,11.0605-10.2109s21.0342,47.4541,32.7744,39.5537 c11.7402-7.9014,1.3262-48.334-22.5664-66.917c-23.8916-18.583-63.7197-18.8643-82.2949-5.1064c0,0-36.1436,2.6563-47.375,41.4551 c-11.2324,38.7988,5.5146,64.624,12.457,58.9609c6.9424-5.6621,7.3506-36.0898,7.3506-36.0898s2.6064,6.5156,8.8594,2.6455 c6.2539-3.8701,9.1104-21.2041,9.1104-21.2041s3.4727,14.6797,14.499,11.207c8.4063-2.6475,9.5986-35.5313,9.5986-35.5313" fill="#3F3F3C"/></g><g id="change1_18"><path d="M181.749,28.2988c0,0-19.7754-9.1904-22.0215-0.8174c-2.2451,8.373,28.0205,11.0264,28.0205,11.0264 s20.1738-19.1943,14.0469-23.6865C195.6689,10.3281,181.749,28.2988,181.749,28.2988z" fill="#3F3F3C"/></g><g id="change1_19"><path d="M354.8477,31.7803c0,0-9.2451,9.0107-15.4375,1.0146c-6.1943-7.9941-8.0352-32.2793-3.6484-30.1387 s7.1113,8.6279,7.1113,8.6279s3.4961-14.5918,7.7881-10.5889c4.2939,4.0049,3.6367,13.0801,3.6367,13.0801 s8.291-13.7803,10.5527-7.9043C367.1133,11.7461,367.3838,23.6309,354.8477,31.7803z" fill="#3F3F3C"/></g><g id="change2_8"><path d="M49.5117,154.6748c0,0-7.7314,0.6484-11.2119,2.582c0,0,6.1865,16.1104,3.2217,16.7529 c-2.9639,0.6436-5.541-1.6768-5.541-1.6768s2.0625,4.8965,0,5.7998c-2.0615,0.9033-4.8965,0-4.8965,0s-0.2568,4.7676-2.7061,4.124 c-2.4482-0.6445-3.4785-3.0928-3.4785-3.0928s-2.1924,3.7363-4.5107,1.9326c-2.3203-1.8047-7.4736-11.4697-3.8672-16.623 C20.1309,159.3193,34.9502,148.4834,49.5117,154.6748z" fill="#F6C79D"/></g><g id="change1_20"><path d="M196.5107,136.6396c0.001,0,0.8467,0.2207,2.3896,0.5166c1.5332,0.2871,3.7334,0.6631,6.3789,0.8887 c2.6445,0.2285,5.7324,0.3262,8.9902,0.043c1.6289-0.1182,3.291-0.3857,4.957-0.7197c1.6689-0.3242,3.3232-0.8096,4.9355-1.3916 c0.8057-0.292,1.5977-0.6191,2.3848-0.9492c0.7559-0.3906,1.5527-0.7012,2.2695-1.1465c0.7285-0.4219,1.4648-0.8213,2.1455-1.291 c0.3467-0.2266,0.6924-0.4512,1.0342-0.6738c0.3242-0.249,0.6475-0.4941,0.9688-0.7383c0.3193-0.2451,0.6367-0.4893,0.9492-0.7314 c0.2988-0.2627,0.5938-0.5234,0.8848-0.7813c0.2959-0.2549,0.5879-0.5068,0.876-0.7568c0.2686-0.2705,0.5361-0.5381,0.7979-0.8018 c1.0781-1.0342,1.9727-2.1377,2.8447-3.125c0.7705-1.0654,1.5801-1.9805,2.1523-2.8975c0.5889-0.9033,1.1748-1.6582,1.5508-2.3418 c0.8252-1.3379,1.2979-2.1016,1.2979-2.1016l0.0176-0.0273c0.1865-0.3027,0.584-0.3975,0.8867-0.21 c0.2646,0.1631,0.3691,0.4854,0.2686,0.7656c0,0-0.3105,0.8652-0.8994,2.3789c-0.2725,0.7676-0.7285,1.6436-1.2246,2.666 c-0.4629,1.042-1.1738,2.1162-1.8887,3.3311c-0.8037,1.1563-1.6475,2.4434-2.7441,3.6514 c-0.2646,0.3105-0.5342,0.625-0.8057,0.9414c-0.2939,0.2998-0.5918,0.6006-0.8936,0.9072 c-0.3047,0.3037-0.6143,0.6094-0.9258,0.918c-0.334,0.2832-0.6719,0.5703-1.0137,0.8604 c-0.3438,0.2881-0.6904,0.5781-1.0391,0.8701c-0.3691,0.2666-0.7422,0.5361-1.1162,0.8057 c-0.7305,0.5693-1.5439,1.0342-2.3574,1.5156c-0.7988,0.5059-1.6787,0.875-2.5234,1.3203c-0.873,0.3828-1.75,0.7764-2.6523,1.0947 c-1.8086,0.624-3.6553,1.1309-5.499,1.4609c-1.8408,0.3467-3.6758,0.5088-5.4443,0.5684 c-1.7686,0.0957-3.4746-0.0273-5.0801-0.1445c-1.6025-0.1523-3.1084-0.3701-4.4805-0.6523 c-2.7461-0.5254-4.96-1.2588-6.4814-1.8154c-1.5156-0.5713-2.3652-1.0029-2.3643-1.0029 c-0.3193-0.1602-0.4482-0.5488-0.2881-0.8682C195.9092,136.6982,196.2227,136.5654,196.5107,136.6396z" fill="#3F3F3C"/></g><g id="change5_1"><path d="M252.4404,215.4307c0,0-0.3447,1.5352-1.1094,4.1514c-0.792,2.6113-1.9102,6.3525-3.5498,10.7363 c-0.8066,2.1973-1.7246,4.5625-2.7637,7.0361c-1.043,2.4736-2.1621,5.0742-3.4307,7.7158 c-1.2588,2.6445-2.5957,5.3643-4.0596,8.0732c-1.458,2.7129-3.0176,5.4287-4.6299,8.1143 c-1.6475,2.6631-3.3496,5.2949-5.1211,7.8242c-0.8779,1.2695-1.7607,2.5215-2.6904,3.7188 c-0.8994,1.2168-1.8203,2.3955-2.751,3.5352c-0.9102,1.1553-1.8359,2.2686-2.7734,3.3311c-0.917,1.0791-1.8564,2.1006-2.7813,3.082 c-0.9092,0.9971-1.8174,1.9463-2.7314,2.8291c-0.9063,0.8906-1.7715,1.7578-2.6572,2.5381 c-0.8779,0.7861-1.6904,1.5693-2.5156,2.2568c-0.8311,0.6777-1.6191,1.3223-2.3623,1.9277 c-1.4912,1.1953-2.8594,2.1523-3.9492,2.9814c-2.2783,1.5313-3.5986,2.3672-3.5986,2.3672l-0.7373-1.0557 c0,0,1.1855-0.9795,3.2607-2.6982c0.9951-0.9053,2.2451-1.9531,3.5967-3.2451c1.3457-1.2998,2.8545-2.7676,4.4365-4.4355 c0.8135-0.8125,1.6035-1.7129,2.4307-2.6338c0.8389-0.9092,1.6895-1.8652,2.5273-2.8799c0.8574-0.998,1.7285-2.0322,2.5723-3.1279 c0.8643-1.0771,1.7539-2.1729,2.6055-3.3301c0.877-1.1367,1.7432-2.3105,2.5908-3.5244c0.8652-1.1973,1.7158-2.4277,2.5635-3.6758 c1.7139-2.4844,3.3438-5.0859,4.9521-7.6973c1.6035-2.6172,3.1572-5.2676,4.6123-7.9209c1.457-2.6504,2.8809-5.2666,4.1777-7.8438 c1.2998-2.5742,2.543-5.0732,3.6709-7.4678c1.1182-2.4004,2.1748-4.6709,3.1064-6.7881c1.8701-4.2295,3.3711-7.7891,4.3477-10.3076 c0.9961-2.5166,1.5283-3.9561,1.5283-3.9561L252.4404,215.4307z" fill="#FFF5DE"/></g><g id="change5_2"><path d="M167.1357,336.5723c0,0,0.1445-0.0244,0.4268-0.0684c0.2939-0.0459,0.7012-0.0918,1.249-0.1436 c1.0879-0.0957,2.6904-0.1865,4.7256-0.0176c2.0303,0.1641,4.5059,0.5469,7.2324,1.4688c2.7148,0.915,5.6934,2.4072,8.4199,4.7383 c2.8135,2.3076,4.8906,5.583,7.6895,7.6436c1.4209,1.0449,2.9756,1.8037,4.6504,1.915c1.6738,0.127,3.5049-0.3252,5.377-1.0303 c3.7568-1.4727,7.6514-3.6445,11.7627-5.4902l0.7686-0.3535l0.1934-0.0879l0.2852-0.1191l0.3926-0.1504l1.5693-0.6045 c0.4912-0.2188,1.1162-0.374,1.7275-0.5342c0.6104-0.1563,1.2227-0.3291,1.834-0.459c2.4277-0.4082,4.9502-0.4912,7.418-0.0576 c2.4531,0.4775,4.7734,1.3896,6.8945,2.543c2.1123,1.1758,4.0039,2.5889,5.79,4.0439c1.7861,1.46,3.4111,3.0039,5.0088,4.4961 c0.7949,0.7344,1.583,1.4648,2.3672,2.1895l1.1846,0.999c0.4053,0.334,0.7441,0.5254,1.1104,0.8027 c0.7402,0.4248,1.4717,0.7607,1.9316,0.6982c0.4609-0.0215,1.0996-0.4043,1.7793-0.9688c1.3604-1.1904,2.7266-2.7637,4.1367-4.1484 c1.4004-1.416,2.8672-2.7246,4.3438-3.8994c0.375-0.2881,0.748-0.5732,1.1172-0.8535l0.2764-0.2109l0.1377-0.1055l0.0684-0.0518 l0.1309-0.0879l0.0361-0.0215l0.5713-0.3457c0.7568-0.4551,1.4463-0.9287,2.4287-1.2725c3.6035-1.5049,7.0928-1.2764,9.9131-0.5615 c2.8311,0.7295,5.0645,1.8916,6.8125,2.9307c1.7539,1.0479,3.0059,2.041,3.8506,2.7236c0.834,0.6953,1.2646,1.1143,1.2646,1.1143 c0.2549,0.2471,0.2627,0.6543,0.0156,0.9092c-0.2354,0.2422-0.6152,0.2617-0.8711,0.0508l-0.0078-0.0059 c0,0-0.4131-0.3408-1.2617-0.9424c-0.8516-0.5947-2.1426-1.416-3.8467-2.3184c-1.7061-0.8809-3.8682-1.8369-6.4365-2.3311 c-2.5254-0.5029-5.5928-0.4082-8.2607,0.8262l-0.498,0.2148l-0.2529,0.1045l-0.2705,0.1797 c-0.3613,0.2412-0.7256,0.4834-1.0947,0.7275l-0.5547,0.3691l-0.4121,0.3457c-0.335,0.2793-0.6729,0.5615-1.0137,0.8467 c-1.3457,1.1611-2.6816,2.4121-3.9766,3.8115c-1.332,1.3818-2.5303,2.8955-4.1973,4.4619 c-0.8574,0.7432-1.9736,1.6484-3.6318,1.835c-0.3887,0.0049-0.7852-0.0059-1.1768-0.0313 c-0.3662-0.0576-0.6992-0.1709-1.0508-0.2676c-0.3682-0.0879-0.6328-0.2441-0.9277-0.3848 c-0.2832-0.1475-0.5898-0.2813-0.8555-0.4482c-0.4961-0.3389-1.0742-0.7031-1.5-1.042l-1.2988-1.0586 c-0.8154-0.7256-1.6357-1.457-2.4609-2.1924c-1.6328-1.4551-3.2324-2.9502-4.9102-4.3057c-1.6807-1.3516-3.416-2.625-5.2627-3.6367 c-1.8516-0.9941-3.7988-1.7178-5.7998-2.1211c-2.0098-0.3623-4.0625-0.3018-6.0918,0.0127 c-0.4902,0.1055-0.9648,0.2422-1.4482,0.3564c-0.4805,0.1172-0.9541,0.21-1.4971,0.4434l-1.5732,0.5957l-0.3916,0.1494 l-0.0996,0.0361c-0.0967,0.04,0.0781-0.0332,0.0439-0.0166l-0.0479,0.0205l-0.1875,0.0869l-0.7559,0.3408 c-4.04,1.7842-7.8887,3.8135-12.0752,5.3906c-2.1006,0.7402-4.4287,1.3438-6.8477,1.0811 c-2.4277-0.2383-4.5557-1.4063-6.207-2.7148c-3.3975-2.7373-5.1768-5.9951-7.5762-8.0811 c-2.3701-2.1807-4.9707-3.6982-7.4248-4.6924c-2.46-0.9961-4.7578-1.4961-6.6641-1.7627 c-1.9111-0.2559-3.4365-0.3262-4.4697-0.3047c-1.0391,0.0127-1.5684,0.0723-1.5684,0.0723l-0.0088,0.001 c-0.3535,0.0391-0.6699-0.2158-0.709-0.5684C166.5586,336.9355,166.7998,336.626,167.1357,336.5723z" fill="#FFF5DE"/></g><g id="change3_4"><path d="M349.7656 30.2549L330.9521 21.251 329.9316 38.5078z" fill="#F9705A"/></g><g id="change3_5"><path d="M346.2891 30.2549L365.1035 21.251 366.124 38.5078z" fill="#F9705A"/></g><g id="change3_6"><path d="M70.5547 76.4854L49.7061 75.8975 55.7822 92.082z" fill="#F9705A"/></g><g id="change3_7"><path d="M67.3789 77.8965L80.9141 62.0283 88.8555 77.3848z" fill="#F9705A"/></g></g></svg>