<?xml version="1.0" encoding="UTF-8"?><svg xmlns="http://www.w3.org/2000/svg" xmlns:xlink="http://www.w3.org/1999/xlink" height="500.9" preserveAspectRatio="xMidYMid meet" version="1.0" viewBox="-0.4 -0.8 320.8 500.9" width="320.8" zoomAndPan="magnify"><g id="change1_1"><path d="M126.9,122.9c3.7,0.1,4.6,1.9,2.7,5.1c-4.1,7.3-8.4,14.4-10.8,22.5c-0.4,1.4-1.1,2.6-2.7,2.8 c-0.7,0.1-0.8,0.6-1,1.1c-0.4,1.1-0.9,2.1-1.3,3.2c-1.2,3.3-2.2,3.8-5.5,2.4c-1,2-1.6,4.2-2.4,6.2c-0.3,0.9-0.6,1.9-1,2.7 c-1.1,2.3-2.6,2.7-5.1,1.2c-1.1,3-1.1,6.2-1.6,9.3c-0.5,3.6-1.6,4.3-5,3.1c-2,5.5-2.6,6-6.1,4.3c-0.1,2.5-0.3,4.9-0.4,7.3 c0,1.5-0.2,2.9-0.7,4.3c-0.5,1.3-0.2,2.1,1.1,3c5.3,3.4,11.2,5.3,17,7.4c9,3.3,17.4,7.5,25.3,12.9c2,1.3,3.7,3.1,5.1,5 c1.7,2.4,4.2,3.4,6.8,4.3c0.9,0.3,1.7-0.2,2.4-0.5c10.4-4,19.9-9.4,28.4-16.6c6.6-5.5,13-11.2,19.8-16.5c8.1-6.3,17-10.8,26.6-14.2 c9.6-3.5,19.3-6.8,28.8-10.5c13.8-5.4,26.4-12.6,37.9-22c7-5.8,13.7-11.9,19.9-18.5c0.5-0.5,0.8-1.2,1.3-1.8c0.9-1.1,1.9-1,2.6,0.1 c0.8,1.3,0.7,2.7,0.6,4.2c-0.2,3.6-0.1,7.3-0.1,11c0,8.5-0.2,17.1,0.1,25.6c0.5,13.4,0.6,26.8,1.1,40.2c0.4,9.7,0.9,19.3,1.1,29 c0.5,22.9,0,45.7,0.3,68.6c0.3,21,0.9,41.9,0.6,62.9c-0.1,9.9-0.5,19.9-1.2,29.8c-0.4,5.8,0,5.4-5.4,5.9 c-11.6,1.1-22.6,4.4-33.7,7.9c-13.5,4.4-26.7,9.6-39.3,16c-9.7,4.9-18.7,10.9-28,16.5c-9.2,5.6-18.5,11.1-27.7,16.6 c-7.1,4.2-13,9.6-18.4,15.7c-5.6,6.3-11.7,12-18,17.7c-2.2,2-5.3,1.2-7.4-0.1c-12.1-7-23.5-14.8-33-25.2c-4.5-5-8.9-10.2-13.2-15.4 c-5.7-6.9-12.8-11.6-21.5-14.1c-8.6-2.5-16.9-5.7-24.2-11.2c-2.9-2.2-5.2-4.9-7.7-7.5c-3.2-3.5-6.7-6.5-11.5-7.4 c-2.9-0.5-5.8-0.4-8.7-0.5c-2.1-0.1-4.1,0-6.2-0.2c-2-0.1-2.9-1.3-2.6-3.3c0.8-6.6,1.6-13.1,2.5-19.7c1-7.2,2.4-14.3,3.8-21.4 c0.9-4.8,1.9-9.5,2.9-14.3c0.3-1.5-0.4-2.9-0.2-4.4c1.5-12.7,1.4-25.4,1.1-38.2c-0.2-7.8-0.5-15.7-1.4-23.5 c-1.3-10.9-1.6-21.8-2.6-32.8c-1-11.5-0.6-23,0.7-34.4c1.3-10.9,2.5-21.8,1.9-32.8c-0.4-6.5-1.4-13-1.4-19.5 c0-6.1-0.1-12.2-0.1-18.3c0-1.2,0.2-2.2,1.2-2.9c1.1-0.7,2.1,0,3,0.6c3.4,2.3,6.2,5.4,9.4,7.8c5.1,3.8,10.6,7.1,16.6,9.5 c0.2,0.1,0.5,0.1,0.9,0.2c-0.3-2.7-0.6-5.4-0.9-8c-0.2-1.3-0.2-2.5,0.8-3.4c0.6-0.6,0.3-1,0-1.6c-0.7-1.4-1.3-2.9-1.5-4.5 c-0.2-1.5,0-2.8,1.7-3.2c1.5-0.4,2.2,0.7,2.7,1.9c0.6,1.4,1.1,2.8,1.8,4.2c0.6,1.2,0.9,2.4,2.9,1.9c1.2-0.3,2.1,1,2.7,2.2 c0.2-0.6,0.3-1.1,0.4-1.5c0.3-1.2,1.1-1.9,2.2-2.2c1.1-0.3,2.1,0.3,2.7,1.2c1.3,1.8,2.8,2.6,5,2c1.5-0.4,2.5,0.7,3.2,2.2 c0.3-1.4,0.6-2.4,0.8-3.5c0.3-1.1,0.7-2.1,1.9-2.5c1.1-0.4,0.9-1.5,1-2.3c0.8-5.8,1.8-11.6,3.2-17.2c0.1-0.4,0.2-0.7,0.3-1.1 c0.8-2.2,2.1-3,3.6-2.4c1.4,0.6,2.2,3.1,1.2,4.6c-0.8,1.3-1.2,2.2,0.1,3.5c0.7,0.7,0.5,1.8,0.3,2.8c-0.2,1.7-0.4,3.4-0.6,5.1 c0,0.3,0,0.6,0.1,0.9c3.1,0.2,3.1,0.2,4.6,1.1c0.6-0.3,0.4-1,0.7-1.4c0.7-1.2,1.7-1.8,3.1-1.5c1.3,0.3,1.9,1.4,1.8,2.6 c-0.1,1.8-0.2,3.5-0.4,5.3c-0.2,1.1,0.4,1.7,1.2,2.2c1,0.6,1.4-0.4,2-0.8c1-0.8,1.2-2,1.6-3.1c0.7-1.8,1.4-3.7,2.4-5.3 c1.8-3.1,3.7-3.3,6.3-0.7c2.5-2.4,5.6-4.2,7.4-7.3c5.7-9.8,12.1-19,19.8-27.3c1.8-1.9,3.3-2.4,4.5-1.3c1.1,1,0.8,2.5-0.9,4.5 C131.1,117.9,128.6,120.1,126.9,122.9c0,0-0.1,0.1-0.1,0.1c0,0,0,0.1,0,0.1C126.8,123,126.9,123,126.9,122.9z M225.4,122.4 c0.3,3.1,0.6,6.2-1.4,8.9c-0.4,0.5-0.3,1.2,0.3,1.7c0.6,0.5,1.3,0.3,1.8-0.1c1.1-0.8,1.6-2,1.8-3.3c0.9-4.8,0.1-9.6,0.2-14.3 c0.1-1.9-0.9-3.9-1.2-5.9c-0.6-3.7-2.2-7.1-2.6-10.9c-0.2-2.2-1-4.4-2.3-6.3c-0.2-0.3-0.3-0.8-0.3-1.2c-0.3-2.1-0.5-4.2-0.9-6.3 c-2-12.2-4-24.3-6.2-36.5c-1.8-9.8-3.4-19.7-6.9-29.1c-1.7-4.6-3.8-9-7.5-12.4c-6.1-5.6-13.2-7.5-21.4-6.5 C168,1.5,158.1,5,149.4,11.8c-10,7.9-15.1,18.3-15.5,30.9c-0.4,11,1.8,21.8,3.1,32.7c0.5,4.4,2,8.8,0.9,13.4c-0.4,1.5-0.3,3-0.3,4.5 c0,3.5,0.6,6.9,1.2,10.3c1.6,9.1,4,18,4.7,27.3c0.1,0.8,0.3,1.9,1.3,2c1.6,0.2,2.1,1.5,2.8,2.6c1.5,2.4,3,4.9,4.6,7.2 c3.9,5.7,9.2,9.1,16,10.2c6,0.9,11.9,0.6,17.8-0.8c5.4-1.2,10.5-3,14.9-6.6c6.5-5.4,11.9-11.7,16.3-18.9c1.1-1.8,2.5-3.5,4.1-4.9 c1.1-1,2.5-1.5,4.2-1.4C225.4,121.2,225.4,121.8,225.4,122.4z" fill="#FEC741"/></g><g id="change2_1"><path d="M137.9,230.9c0.4,0.9,1.2,1.8,0.1,2.6c-0.9,0.8-1.8,0.4-2.6-0.3c-10.9-9.3-23.7-15.1-36.8-20.7 c-4.6-2-9.5-3.6-13.8-6.1c-5-3-8.9-7.2-12.6-11.6c-0.8-0.9-1.6-1.7-2.8-2.4c0.2,2.1,0.2,4.3,0.5,6.4c0.6,4,0.6,8.1,1,12.2 c1.1,13.7,1.4,27.4,1.1,41.1c-0.4,14.1,0.5,28.2-0.4,42.2c-0.9,13.3-0.7,26.7-0.6,40c0.1,7.7,0,15.4-0.5,23 c-0.1,0.8-0.1,1.6-0.2,2.4c-0.4,3.2-0.1,6.2,1.4,9.2c3.2,6.5,5,13.5,7.8,20.2c6.3,15.4,13.7,30.2,21.9,44.7 c8.1,14.5,16.5,28.8,25.1,43c0.9,1.5,1.8,3.2,3.5,4.1c0.7,0.4,1,1.1,0.6,1.9c-0.5,0.8-1.2,0.9-2.1,0.5c-1.4-0.6-2.3-1.7-3.2-2.9 c-4-5.7-7.3-11.8-10.8-17.8c-8.6-14.4-17-28.9-24.6-43.8c-7.1-13.9-13.4-28.2-18.3-43.1c-0.8-2.4-1.9-4.7-2.9-7.1 c-0.2-0.4-0.4-0.7-0.7-1.3c-2.3,2.6-4.5,5.2-6.6,7.7c-5.2,6-11,11.2-16.8,16.6c-6.9,6.5-14.5,11.8-22.7,16.5 c-3.7,2.1-7.2,4.5-10.5,7.3c-0.7,0.6-1.6,1.3-2.4,0.3c-0.9-1,0-1.7,0.7-2.4c3.3-3.1,7.1-5.6,11-7.8c10.3-5.8,19.3-13.4,27.8-21.5 c6.2-5.9,11.9-12.3,17.7-18.8c1.5-1.7,1.1-3.9,1.3-5.9c1-12.7,0.7-25.5,0.4-38.2c-0.3-12,0.8-24,1-36c0.1-4.9,0.1-9.9,0.1-14.8 c0-13.5,0.1-27.1,0-40.6c0-9.8-1-19.5-1.5-29.2c-0.2-3.3-0.8-6.5-1.1-9.8c-0.1-1.3-0.7-2.1-1.6-2.9c-4-3.4-8.5-5.9-13.1-8.2 c-8.8-4.4-17-10-25.7-14.5c-4.2-2.2-7.8-5.4-11-8.9c-0.8-0.8-1.2-1.8-1.6-2.8c-0.3-0.8-0.2-1.6,0.7-2c0.8-0.3,1.4,0.1,1.7,0.9 c0.5,1.2,1.3,2.2,2.3,3c3.6,3,7.1,6.1,11.4,8.2c6.8,3.4,13.1,7.5,19.6,11.2c1.2,0.7,2.4,1.7,4,1.2c0.2-0.1,0.6,0.1,0.8,0.3 c2.1,1.8,4.6,2.6,6.9,4.1c1.6,1,2.9,2.9,5.2,2.3c0.2-0.1,0.7,0.5,0.9,0.8c1.2,1.8,2.4,3.5,3.5,5.4c1.6,3,3.6,6.1,7,7.7 c1.8,0.8,3,2.5,4.5,3.7c1.9,1.6,3.8,3,6.2,4.2c0.1-7,0.4-13.8,1.9-20.5c-1.5-0.1-2.5,0.9-3.7,1.1c-0.7-2.8-0.6-3.1,1.9-4 c3-1.1,3-1.1,3.1-4.4c0.1-7.2,1.5-14,5.2-20.2c1-1.7,2.2-3.4,3.6-4.8c2.4-2.3,4.8-4.5,7-7c-2.5-0.5-4.9-0.2-7.2,0.5 c-0.9,0.3-2,0.8-2.5-0.5c-0.4-1.3,0.7-1.7,1.7-2c3-1.1,6.2-1.2,9.4-1.2c0.8,0,1.6,0.2,2-0.8c0.2-0.4,0.8-0.7,1.2-0.5 c0.8,0.4,1.4,0.1,2.2-0.3c1-0.6,1.9-0.1,2,1.1c0.1,1,0.5,1.2,1.3,1.4c2.4,0.8,4.7,1.6,7,2.5c1.4,0.5,2.3,0.3,3.3-0.9 c4-5,8.8-9.1,15-10.6c7.6-1.8,15.2-4.6,23.3-3.2c6.1,1.1,12,2.6,17.6,5.5c0.6-0.9,1.1-1.8,1.6-2.6c4.7-7.3,11.8-11.5,19.6-14.5 c4.6-1.8,9.4-3,14.4-2.6c3.1,0.2,6.3,0.6,9.4,0.8c3.5,0.3,6.6,2.3,9.1,4.6c9.8,8.9,15.5,19.7,14.9,33.3c-0.1,1.2,0.4,2,1.3,2.8 c2.4,2.1,4.9,4.1,6.3,7.1c1.1,2.3,1,2.9-1.1,4.2c-5.5,3.4-11.2,6.5-17.6,8.1c-12.5,3.1-23.9,8.7-35.2,14.5 c-8.4,4.3-16.3,9.3-23.6,15.1c-5.6,4.4-10.8,9.4-16.6,13.5c-5.5,3.9-11.1,8-17.7,10c-2.3,0.7-4.6,1-6.9,1.7 C139.9,232.1,139.1,230.6,137.9,230.9c0-0.1,0-0.1,0-0.2c0,0-0.1,0-0.1,0C137.8,230.8,137.8,230.8,137.9,230.9z M287.5,334.4 c-0.6-0.4-1.2-0.3-1.7,0.2c-1.1,0.9-2.3,1.6-3.6,2.2c-15.9,7.5-32.1,14.4-47.6,22.6c-24.8,13.1-48.6,27.6-70.2,45.6 c-2.9,2.4-5.6,5-8.7,7.3c-0.7,0.5-1.3,1.2-0.6,2.2c0.7,0.9,1.4,0.4,2.1,0c0.3-0.2,0.6-0.4,0.9-0.6c4.5-3.3,8.5-7.1,12.8-10.6 c16.7-13.2,34.8-24.4,53.3-34.9c16.5-9.4,33.9-17.1,51.1-25.1c3.9-1.8,8-3.3,11.6-5.8c0.6-0.4,1.2-0.9,1.3-1.8 C288.2,335.2,288,334.7,287.5,334.4z M79.6,186.2c-1.6,1.2-3,2.5-3.8,4.4c0.5,0.8,1.2,1.3,1.9,1.9C79.2,190.6,80.8,188.9,79.6,186.2 z" fill="#F27622"/></g><g id="change3_1"><path d="M72.4,192c-2.1-2.4-3.3-4.9-5.5-6.3c-3.2-2.1-4-5.1-4.4-8.5c-0.7-6.5-2.7-12.7-4.7-19 c-0.4-1.3-1.3-1-2.6-0.9c2,7.8,4.6,15.3,5.2,23.3c-0.2,0.2-0.5,0.1-0.9-0.1c-3.7-1.9-7.4-3.8-11.1-5.7c-0.3-0.1-0.5-0.3-0.8-0.3 c-3.8-0.8-4.4-2.9-5.2-6.2c-0.7-3.2-1-6.5-1.6-9.8c-0.5-2.5-0.6-4.9-1-7.4c-0.4-2.4-1.5-4.3-2.3-6.5c-0.2-0.5-0.5-1-0.3-1.3 c0.8-1.3-0.2-2-0.8-2.6c-2.9-2.9-6.3-5-10.1-6.5c-5.8-2.3-11.9-4-17.5-7.1c-2.7-1.5-5.8-2.6-7.3-5.5c-1.5-2.8-1.9-5.7-1.3-8.9 c0.5-3,1.3-5.8,3.5-8c1.6-1.6,3.7-2.1,5.8-1.1c1.1,0.5,2.2,1,3.1,1.8c0.8,0.8,1.8,1.5,2.7,2.2c1.6-2.3,2.2-5.3,5.4-6.1 c3.2-0.7,5.3,1.6,7.8,2.7c1.3-1.4,1.4-3.4,2.7-4.8c0.8-0.9,1.5-2,2.7-2.6c1.1-0.6,1-1.7,0.6-2.7c-1.9-4.5-2-9.2-1.9-13.9 c0.1-3.3,0.6-6.4,1.8-9.5c1-2.5,2.6-4.1,5.1-4.8c1.2-0.4,2.4,0.3,3.5,0.4c0.6,0.1,1.2,0.3,1.8,0c0.4-2.3,0-4.7,0.5-7 c1-4.7,4.6-8.4,9.9-6.8c0.3,0.1,0.7,0,1.1,0.1c1.6-2.6,2.9-5.4,4.9-7.7c2.7-3.1,6.1-2.7,8.9-0.3c0.5,0.4,1,0.9,1.4,1.4 c0.7,0.9,1.4,0.9,2.4,0.4c2.1-1.1,4.3-1.9,6.7-2.1c2.2-0.2,3.8-0.3,5.5,2.7c1.3,2.3,1.8,4.9,2.4,7.4c0.4,1.6,1.3,2.4,2.7,2.9 c2.4,0.9,4.8,1.5,7.1,2.6c2.9,1.4,4.1,3.8,4.2,6.8c0.1,4.4-0.5,8.7-0.7,13.1c-0.1,1.7,0.4,2.1,2.2,2.3c3.9,0.4,4.3-0.5,5.5,4.4 c0.1,0.5,0.3,1,0.4,1.6c0.3,1.4,1.1,2.2,2.7,2c1.1-0.1,2.3,0.1,3.4,0.3c1.7,0.3,2.2,1.3,2.2,2.8c0,1.5,0,2.9,0,4.5 c1.7,0,3.2,0.4,4.8-0.4c1.6-0.8,4.5,0.2,5.8,2c2.2,2.9,3.1,6.2,2.4,9.9c-0.4,1.8-0.2,3.6,0.5,5.4c2.2,6.1-0.3,10.2-5.1,13.9 c-1.4,1-2.6,2-3.1,4c-1.1,4.2-3.5,7.6-7.3,9.9c-0.3,0.2-0.7,0.5-1,0.4c-5.1-1-7.5,2.9-10.4,5.8c-2.7,2.6-4.7,5.8-6.8,8.9 c-1.7,2.4-2.4,5.1-3.1,7.8c-0.9,3.5-1.7,7.1-2.1,10.8c-0.4,3.7-1,7.3-1.3,11c-0.5,5.4-0.1,10.8-0.7,16.2c-0.1,0.7-0.3,1.4-0.4,2.1 c-3,0.4-5.3-1.9-5.4-4.8c-0.1-1.9-0.5-3.8-0.5-5.7c-0.1-3.7-1-7.3-0.2-11c0.5-2.4-0.1-5,0.1-7.5c0.3-3.6,0.5-7.3,1-10.9 c0.5-3.8,1-7.6,1.5-11.5c0.1-0.6,0-1.3-0.8-1.4c-0.8-0.1-1.3,0-1.6,1c-0.5,1.9-0.7,3.9-0.9,5.9c-0.7,5.5-1.5,11-1.8,16.6 c-0.2,6.2-0.5,12.4,0.1,18.6c0.2,2.1,0.8,4.3,0.4,6.8c-2.6-1.7-5-3.3-6.8-5.8c-0.3-0.4-0.4-0.9-0.4-1.3c-0.2-10.1-0.7-20.2-0.3-30.2 c0.3-7.2,1.5-14.3,2.8-21.3c0.2-1.1,0.3-2.3,0.5-3.3c0.2-0.8,0.3-1.5-0.5-1.7c-0.9-0.3-1.6,0.2-1.8,1.1c-0.4,1.7-0.8,3.4-1.1,5.1 c-1.9,10.9-3.4,21.9-2.9,33C71.9,181.7,72.2,186.6,72.4,192z M174,328.2c5.9-2.6,11.9-5,17.6-7.9c4.4-2.2,8.8-4.4,13.2-6.6 c5.3-2.8,10.9-5.1,16.1-8c5-2.8,10.1-5.3,15.1-8.1c4.5-2.6,9.1-5,13.6-7.6c3.1-1.8,6.1-3.7,9.2-5.5c3.4-2,6.8-3.9,10.2-5.8 c5.1-2.9,10.2-6,15.3-8.8c5.7-3.2,11.5-6.3,17.1-9.6c3.9-2.3,7.8-4.6,11.8-6.7c2.4-1.2,4.7-2.7,6.1-5.1c1.1-1.9,0.5-3.5-1.6-4.2 c-1.9-0.7-3.4,0.2-4.9,0.8c-1,0.4-1.6,1.2-1.1,2.2c0.5,1,1.4,0.7,2.2,0.4c1-0.3,1.9-1.1,3.2-0.7c-1,1.5-2.2,2.4-3.6,3.2 c-9,5.1-18,10.2-27,15.2c-13.7,7.7-27.2,15.6-40.8,23.5c-13.9,8.1-28.3,15.5-42.7,22.7c-12.4,6.2-24.7,12.5-37.7,17.3 c-0.5,0.2-1.1,0.8-2,0c0.8-0.4,1.5-0.8,2.2-1.2c12.1-6.2,24.1-12.4,35.6-19.5c23.7-14.7,47.6-29.2,72-42.8 c12.8-7.1,26-13.6,37.8-22.3c2.9-2.1,5.7-4.3,7-7.8c1-2.7,0.4-3.9-2.7-4.1c-1.3-0.1-2.5,0.6-3.5,1.4c-0.4,0.3-0.9,0.8-0.4,1.5 c0.4,0.6,0.9,1.3,1.7,0.9c0.6-0.3,1.1-0.4,1.6-0.1c0.1,0.5-0.3,0.8-0.5,1.1c-2.2,2.8-5.2,4.8-8,6.8c-6.2,4.4-13,7.9-19.6,11.5 c-9.8,5.4-19.5,10.9-29.2,16.4c-3.7,2.1-7.4,4.1-11,6.3c-6.6,3.9-13.1,7.9-19.6,11.9c-5.3,3.3-10.7,6.5-16,9.8c-5,3.1-10,6.1-15,9.2 c-7.2,4.4-14.6,8.4-22,12.3c-1.7,0.9-3.3,2.3-5.4,2.7c0-0.7,0.5-0.9,0.9-1.2c4.4-3.8,9.1-7.3,13.6-11c5.2-4.2,10.1-8.8,15.1-13.2 c6-5.4,11.4-11.3,15.9-18c1.8-2.7,3.5-5.4,4.3-8.6c1-3.9-0.6-6.2-4.6-6.5c-2.8-0.2-5.3,0.8-7.7,2c-5.2,2.5-9.6,6.2-13.8,10.1 c-2.9,2.7-5.7,5.7-8,8.9c-0.8,1.1-1.5,2.4-3.4,3.3c0.5-0.8,0.7-1.2,0.9-1.6c3.7-6.6,7.4-13.2,10.3-20.2c2.2-5.3,4.1-10.6,3.6-16.4 c-0.4-4.7-4.4-8.5-9.7-7.9c-4.9,0.5-8.8,3.1-12.3,6.2c-7,6.2-11.5,14.1-14.6,22.9c-2.1,5.9-3.5,12-4,18.2c-0.4,4.7,0,9.4-0.1,14.2 c0,3.6,0.4,7.2,0.8,10.7c0.4,3,0.6,6,1.2,9c0.9,4.5,1.2,4.6-3.1,6.4c-2.1,0.9-4.1,2.6-6.7,1.4c-0.8-0.4-1.6-0.6-2.3-0.8 c-7.4-2.7-14.8-5.8-21.9-9.3c-12.6-6.2-25.1-12.7-37.9-18.7c-7.5-3.5-15-7.1-22.5-10.7c-7.5-3.6-14.6-8-21.8-12.1 c-4.7-2.7-9.5-5.3-14.2-8.1c-4-2.4-8-4.8-12-7.3c-0.6-0.4-1.4-0.8-1.4-1.7c0.1-1.6-0.2-3.3-0.4-4.9c-0.6-6.3-0.4-12.5-0.4-18.8 c0-5.1,0.7-10.2,1.3-15.2c0.4-3.6,0.9-7.2,1.2-10.8c0.3-4,0.2-8,0.2-12c0-6.6,0.2-13.3-0.9-19.9c-1.2-7.3-1.9-14.6-1-21.9 c0.2-2,0.7-3.9,2.4-5.3c0.7-0.6,1.7-1.2,0.9-2.4c-0.8-1.1-1.8-0.4-2.6-0.1c-0.5,0.2-1,0.6-1.4,1.1c-1.7,2.6-2.6,5.3-2.7,8.5 c0,5.8-0.4,11.7,0.4,17.5c0.8,5.8,1.8,11.6,1.7,17.4c-0.1,5.4,0.6,10.8-0.6,16.2c-0.3,1.2,0.2,2.6-0.1,3.8c-1.1,4.9-1.1,10-1.8,14.9 c-0.5,3.5-0.2,7.1-0.3,10.6c0,3-0.2,6-0.3,8.9c-0.1,3.6,0.6,7.3,0.5,11c-1,0-1.9,0.2-2.2,1.4c5.5,4.7,2.7,11.2,3.7,16.8 c-1,0.5-1.5,0.2-2-0.4c-1.3-1.3-1.8-1.2-2.7,0.4c0.7,1.9,2,3,4,3.7c1,0.3,1.4,1.1,1.5,2.3c0.7,8.1,1.4,16.1,2.2,24.2 c1,9.4,1,18.9,0.7,28.3c-0.2,6.9-1.2,13.7-1.2,20.6c0,2.5-0.3,5.1-0.9,7.6c-0.7,2.9-1.5,5.8-1.9,8.7c-1.2,7.4-2.1,14.7-4,22 C5,402.2,4.7,408,3.9,413.7c-0.1,1-0.3,2.4,0.9,2.6c1.3,0.3,1.6-1.2,2-2.1c0.1-0.2,0-0.4,0.1-0.5c0.4-2.8,0.7-5.6,1.2-8.4 c1-5.6,2-11.1,3.2-16.6c1.2-5.5,1.5-11.2,2.9-16.7c0.7-2.9,1.5-5.8,1.8-8.7c0.7-8.4,1.2-16.9,1.7-25.3c0.8-13.9-0.3-27.8-1.9-41.6 c-0.4-3.4-0.6-6.7-0.9-10.5c6,3.7,11.9,6.7,17.8,9.8c7,3.6,14,7.3,21.3,10.4c8.8,3.8,18,6.6,26.8,10.4c5.1,2.2,10.6,3.8,15.9,5.5 c5.2,1.7,10.3,3.4,15.5,5c3.4,1.1,6.9,2.2,10.4,3.1c4.6,1.2,9.4,2.1,14,3.2c4.4,1.1,8.9,1.7,13.4,1.9c2.2,0.1,4.4-0.6,6.9-0.3 c-1,2.1-0.3,3.8,0.4,5.6c0.4,1.1,0.6,2.4,0.9,3.6c0.5,1.6,0.1,2.8-0.5,4.1c-0.7,1.3-1.5,2.5-2.4,3.6c-3.3,4.1-6.2,8.3-6.3,13.9 c-0.1,3.5,0.4,6.8,2.3,9.8c2.2,3.4,5.7,5.3,8.7,7.7c3,2.5,5.4,5.4,5,9.6c-0.2,2.8-2,5-3.5,7.3c-2.1,3.3-4,6.7-4.7,10.6 c-0.7,3.7-1.3,7.4-1.2,11.2c0,2.3,0.5,4.6,1.9,6.6c0.6,0.9,1.3,1,2.2,0.5c0.9-0.5,0.6-1.3,0.3-1.8c-1.5-2.3-1.4-4.9-1.3-7.4 c0.3-4.2,0.6-8.3,2.1-12.2c1.2-3.3,3.4-6,5.1-9c1.2-2.1,2.3-4.3,2.1-6.6c-0.4-4.8-2.9-8.6-6.8-11.4c-2.3-1.7-4.9-3.1-6.7-5.3 c-4.6-5.6-3.2-13.6,0.7-18.6c1.2-1.6,2.5-3.1,3.6-4.7c1.8-2.6,3.2-5.3,2.1-8.6c-0.5-1.5-1-3.1-1.4-4.6c-0.7-2.5-0.2-3.5,2.1-4.9 c1.1,1.4,2.6,2.2,4.4,2.9c2.2,0.8,4.4,1.4,6.5,2.5c2.5,1.4,2.9,2.8,1.3,5.2c-2.2,3.4-4.3,6.8-5.3,10.8c-0.6,2.6,0.5,5.8,2.8,7.1 c3,1.7,6.3,2.2,9.6,3.1c3.9,1,6.5,3.5,6.5,6.6c0,1.8-0.4,3.5-0.6,5.3c-0.3,2.9-0.4,5.8,0.4,8.6c1.3,4.2,4.6,6.1,8.3,7.7 c5.5,2.4,7.2,3.2,7.5,10.5c0.1,1.5,0,3,0.1,4.6c0,0.5,0,1.1,0.7,1.3c0.6,0.1,1.1-0.1,1.4-0.6c0.3-0.5,0.6-1,0.7-1.7 c0.1-3.3,0.1-6.7-1.1-9.9c-0.5-1.4-1.1-2.9-2.4-3.8c-2-1.4-4.2-2.5-6.5-3.4c-3.3-1.3-6-3.3-6.4-7.1c-0.3-3.1,0.1-6.2,0.5-9.2 c0.7-4.5-0.8-7.8-4.8-10c-3.1-1.7-6.5-2.4-9.9-3.2c-3.6-0.9-4.8-2.9-3.8-6.4c0.9-3,2.4-5.9,4.5-8.3c2.5-3,2.2-6.4-1-8.7 c-1.9-1.4-4.1-2.3-6.3-3c-1.5-0.4-3.2-0.5-4.4-2.3C167.7,330.8,170.9,329.6,174,328.2z M161.7,272.6c3.1-8.9,7.7-16.9,15.2-23 c2.3-1.9,4.9-3.4,7.8-4.2c4.4-1.2,8,1.4,8.2,6c0.2,4.1-0.9,7.9-2.4,11.7c-4.4,11.3-10.7,21.7-16.9,32c-4.3,7.2-8.7,14.4-12,22.1 c-0.7,1.6-1.2,3.2-1.9,5C156.9,305.3,156,288.8,161.7,272.6z M25.2,274.5c21.3,12.8,43.2,24.5,65.9,34.8 c10.1,4.6,19.9,9.8,29.9,14.8c2.8,1.4,5.6,2.6,8.8,4.2c-2,0.1-3.3-0.5-4.6-0.9c-17.1-4.7-33.8-10.7-50.5-16.6 c-20.4-7.1-39.8-16.6-58.5-27.2c-1.1-0.6-1.7-1.3-1.8-2.7c-0.2-4.4-0.5-8.8-0.8-13.4C17.6,269.8,21.4,272.2,25.2,274.5z M166,317.9 c7.2-13.9,15.6-27,26.6-38.2c4.5-4.6,9.5-8.8,15.5-11.5c1.6-0.7,3.3-1.2,5.1-1.2c2.1,0.1,2.7,0.8,2.2,2.9c-0.7,2.7-2.1,5.2-3.7,7.5 c-5.2,7.8-11.8,14.2-18.6,20.5c-8.4,7.8-17.6,14.7-26.3,22.1c-0.8,0.7-1.5,1.4-2.5,2.3C164.6,320.5,165.4,319.3,166,317.9z M167.8,322.9c0,0,0.1,0.1,0.1,0.1c-0.1,0.2-0.2,0.2-0.2,0c0,0,0-0.1,0.1-0.1C167.7,322.9,167.8,322.9,167.8,322.9z M136.7,183 c3.2,0,4.3-1.8,2.6-4.4c-1.5-2.4-3.6-4.4-5.8-6.2c-2.3-1.8-5-2.8-8.1-2.6c-2.2,0.1-3.4,1.3-2.9,3.2c0.5,2.1,1.3,4.2,2.8,5.9 c2.7,3.2,6.4,3.8,10.3,4C136,183,136.4,183,136.7,183z M157,208.9c1.6-1.4,2.9-3.1,3-5.5c0.1-2.8-1.4-4.2-4.1-3.5 c-1.7,0.4-3.3,0.7-5,1c-2.6,0.4-5.2,0.8-7.7,1.8c-1.6,0.7-2.1,2.4-1.1,3.5c0.9,1,1.9,1.9,2.9,2.9c1.7,1.7,3.7,2.2,6.9,2.3 C153.5,211.9,155.4,210.4,157,208.9z M218.5,162.8c3.9-4.1,5.4-8.9,4.6-14.5c-0.2-1.1-0.6-2.2-1.8-2.5c-1.1-0.3-2,0.3-2.5,1.4 c-0.1,0.3-0.4,0.4-0.6,0.6c-2.7,3.3-5.5,6.6-6.6,10.9c-0.8,3.3,0.3,5.5,3.1,5.6C216.3,164.3,217.5,163.9,218.5,162.8z M169.4,160.5 c-0.9-0.4-1.8-0.5-2.5,0.2c-0.8,0.8-0.9,1.7-0.8,2.8c0.2,1.4,0.4,2.9,0.7,4.3c0.5,2.7,1.2,5.4,3.4,7.3c1.7,1.5,3.6,2.6,6,2 c1.2-0.3,1.7-1.1,1.3-2.1c-0.3-0.8-0.3-1.5-0.2-2C177.6,168,174,162.4,169.4,160.5z M160.9,127.7c-0.5-5-3.3-8.2-7.6-10.4 c-1.5-0.8-3.4,0.8-3,2.3c0.6,2.1,0.5,4.2,1,6.3c0.9,3.9,2.6,7.1,6.5,8.7c0.8,0.4,3.5-0.1,4-0.9c0.3-0.5,0.4-1.2-0.1-1.5 c-0.8-0.5-1-1-0.4-1.8C160.8,129.6,161,128.7,160.9,127.7z M206.4,118.2c-2.1,0.1-2.7,1-1.9,2.9c0.8,2.1,2.2,3.9,3.9,5.4 c2.5,2.2,5.5,2.1,8.4,1.8c1.4-0.1,3.3-4,3.1-5.6c-0.3-1.9-1.7-3.1-3.4-3.7c-2.1-0.8-4.4-0.9-6.6-0.7 C208.7,118.2,207.5,118.2,206.4,118.2z" fill="#1A815C"/></g><g id="change4_1"><path d="M259.9,167.6c-1.6-4.8-4.9-8-8.8-10.5c0.4-5.4-0.5-10.5-1.9-15.6c-2.4-8.7-7.4-15.5-14.7-20.7c-2.2-1.6-4.8-2.6-7.4-3.4 c-1-0.3-1.4-0.9-1.7-1.8c-1.5-6.5-2.1-13.2-2.9-19.8c-0.1-1.1-0.6-2.1-0.2-3.3c8.2,4.2,16.8,7.3,25.1,11.1 c14.5,6.7,29.6,11.9,44.9,16.4c4.6,1.3,9.1,3.1,13,5.9c0.4,0.3,0.9,0.5,1.2,0.9c2.5,3,2.6,3.3,0.3,5.8c-7.5,8.1-15.9,15.2-24.9,21.6 C274.8,159,267.6,163.5,259.9,167.6z M138.2,334.9c0.1,11.9,0.3,23.7,0.3,35.6c0,27.7,0.3,55.5-0.6,83.2c-0.5,13.8,0,27.7-1.5,41.4 c-0.2,1.9-0.6,2.2-2.4,1.7c-2.1-0.5-4.2-1.2-6.1-2.2c-7.6-3.8-14-9.5-20.3-15.1c-6-5.3-10.7-11.9-15.3-18.4 c-4.6-6.5-10-11.8-17.4-15.1c-4-1.8-8.3-3.2-12.4-4.7c-9-3.3-17.2-7.7-23.7-14.8c-1.9-2.1-3.6-4.3-5.9-6c-5-3.9-10.8-5.4-17-5.8 c-3.2-0.2-6.5-0.2-9.7,0.3c-1,0.1-1.6,0.6-1.6,1.6c0,1.1,0.9,1.3,1.8,1.3c0.5,0,1.1,0,1.6-0.1c3-0.3,6.1-0.2,9.1,0.1 c6.8,0.8,12.9,3.1,17.3,8.6c4.1,5.2,9.4,9,15,12.4c6,3.6,12.6,5.7,19.1,8c8.3,2.9,15.2,7.5,20.3,15c4.7,6.8,9.8,13.4,15.7,19.2 c4.6,4.5,9.8,8.2,14.9,12.1c3,2.3,6.3,4.1,9.9,5.4c1.9,0.7,3.9,1.5,6,1.4c3.2,0,4-0.8,4.1-4c0-0.4,0-0.7,0-1.1 c0.9-6,1.1-12.1,1.2-18.2c0.2-19,1-38,1-57c-0.1-27.7,0.2-55.3-0.3-83c0-2.7-0.1-2.7-3-3.2C138.2,334,138.2,334.4,138.2,334.9z M129.4,103.5c0.2,1.2,0.1,2.6,0.1,3.8c-0.1,2.8-0.5,5.7,0.7,8.4c1.7,3.7,0.3,6.6-2.5,9.1c-0.7,0.6-1.5,1.3-2.3,1.8 c-1.4,0.8-2.2,2.1-2.5,3.6c-0.5,2.5-1.5,4.8-2.7,7.1c-0.9,1.8-2.4,2.9-4.2,3.5c-1.1,0.4-2.3,0.5-3.3,1.4c4.9,1,9.2,3,13.3,5.7 c4.8-7.6,11.6-12.2,19.5-14.9c-1.2-15.9-4.8-31.1-6.7-46.9c-5.5,3.9-10.9,7.7-16.6,11.7C126.1,98.5,128.7,99.9,129.4,103.5z M31.1,145.3c-4.9,1.7-9.8,3.3-14.7,5.1c-2.5,0.9-2.6,1.9-0.7,3.5c5.8,4.9,12.2,9.1,18.6,13.3c3.5,2.2,7.1,4.3,11.3,6 c-2-10.4-1.5-21.1-7-30.5C35.8,143.6,33.5,144.5,31.1,145.3z M139.9,301.5c-0.1-22.3,0.1-44.6,0.2-66.8c0-0.9,0.1-1.8,0-2.7 c-0.1-1-0.6-1.8-1.7-1.7c-1,0.1-1.6,0.9-1.5,2c0.1,0.7,0.2,1.4,0.2,2.2c0,9.5-0.1,18.9-0.2,28.4c-0.1,20.9-0.5,41.8,1,62.6 c0.2,3,0.1,3,3.1,3.8C140.6,319.9,139.9,310.7,139.9,301.5z M52,146.7c0,0.7,0.3,1.5,1.1,1.4c0.8,0,1.2-0.7,1.3-1.5 c0-0.3,0-0.6,0-0.9c-0.6-5.1-0.1-10.2,0.4-15.3c0.4-3.6,1.1-7.2,3.4-10c2.6-3.2,3.5-6.7,3.2-10.8c-0.3-3.8,0.8-7.3,2.5-10.7 c0.3-0.6,0.6-1.4,1.4-1.6c2.4-0.6,2.7-2.2,2.5-4.3c-0.1-0.6,0.1-1.3,0.3-2c1.7-5.7,3.8-7.6,8.5-6.8c2.1,0.4,3.5-0.4,4.7-2 c3-3.9,3.8-4.1,8.4-2.4c1.1,0.4,2.2,0.6,3.1-0.2c1-1,1.8-0.6,2.7,0.1c1.5,1.1,2.9,2.3,4,3.7c0.6,0.7,1.2,1.1,2,0.4 c0.8-0.7,0.4-1.4-0.2-2.1c-1.6-2.1-3.6-3.8-6-5c-1-0.5-2.2-0.6-3.1,0.1c-1,0.8-1.8,0.6-2.8,0.1c-3.8-1.6-6.1-1-8.9,2 c-0.4,0.4-0.8,0.9-1.1,1.4c-0.7,1-1.5,1.4-2.9,1.2c-4.4-0.8-7.1,0.7-9.4,4.6c-1.3,2.2-1.9,4.6-1.9,7.1c0,0.6,0.1,1.2-0.7,1.4 c-1.9,0.7-2.7,2.4-3.5,4c-1.9,4.2-2.6,8.7-2.2,13.3c0.2,2-0.4,3.7-1.6,5.2c-1.6,2-2.8,4.2-3.6,6.7c-1.7,5.2-1.7,10.5-1.7,15.9 C51.9,142.2,51.9,144.4,52,146.7z M206.3,37.6c-0.6-0.3-1.1-0.1-1.5,0.4c-0.4,0.6-0.7,1.3-1,1.9c-7,17.5-16.1,33.9-28,48.7 c-2.1,2.6-4,5.2-6.1,7.8c-0.6,0.7-1.1,1.5-0.2,2.2c0.8,0.7,1.6,0.2,2.2-0.5c0.3-0.3,0.6-0.6,0.8-1c1.5-1.9,3-3.9,4.5-5.8 c12.7-15.6,22.2-32.9,29.5-51.5c0.1-0.3,0.2-0.7,0.4-1C206.9,38.3,206.8,37.8,206.3,37.6z M180.4,125.9c3.2-3.8,6.3-7.8,9.5-11.6 c9.9-11.6,16.5-25.1,22.9-38.7c0.4-0.8,0.9-1.9-0.3-2.4c-1.1-0.5-1.6,0.5-2,1.4c-1.3,3.2-3.1,6.1-4.6,9.3 c-5.5,11.6-12.4,22.3-20.8,32c-2.5,2.9-4.9,6-7.4,9.1c-0.4,0.5-0.7,1-0.4,1.7c0.2,0.5,0.6,0.7,1.2,0.7 C179.4,127.2,179.9,126.5,180.4,125.9z M193.4,18.3c-0.7-0.2-1.3,0-1.5,0.6c-0.5,1-0.8,2-1.1,3.1C187,34,180.5,44.4,172.6,54 c-3.4,4.2-6.8,8.4-10.3,12.6c-0.6,0.7-1,1.3-0.3,2.1c0.8,0.8,1.6,0.3,2.2-0.3c0.2-0.2,0.3-0.4,0.5-0.6c2.9-3.6,5.9-7.1,8.8-10.7 c6.9-8.5,13.1-17.5,17.2-27.8c1.3-3.2,2.4-6.4,3.3-9.7C194.1,19.1,194,18.6,193.4,18.3z M115.7,106.2c0.1-2.3-0.3-4.4-1.9-6.1 c-1.9-2.1-5.2-1.8-6.6,0.5c-0.4,0.6-0.5,1.3,0,1.8c0.5,0.5,1.1,0.4,1.6,0c2.5-1.6,4-0.8,4.3,2.2c0.1,1.4-0.2,2.7-0.5,4 c-0.4,1.7,0.2,2.6,1.8,2.5c1.2-0.1,1.8,0.4,2.3,1.4c1.6,2.8,1.6,5.7,0,8.5c-1.4,2.4-3.3,4.4-5.2,6.3c-0.9,0.9-1.7,1.9-3.1,2.2 c-0.6,0.1-0.8,0.7-0.8,1.3c0.1,0.8,0.6,1.2,1.3,1.3c1.2,0.2,2.1-0.6,2.9-1.3c2.2-2,4.1-4.2,5.9-6.5c1.5-1.9,2.4-4,2.7-6.4 c0.5-3.8-1.7-8.2-5.1-9.5C115.5,107.6,115.6,106.9,115.7,106.2z M46.7,69.2c-0.6-0.6-1.3-1-2.3-0.9c-0.6,0.1-1,0.4-1.1,1 c-0.1,0.6,0.2,1.1,0.8,1.3c1.7,0.6,2.2,2.1,2.7,3.6c0.4,1.4,0.4,2.8,0.3,4.2c0,1.3,0.6,2,1.8,2c1.8,0,2.6,0.9,3,2.5 c0.2,0.8,0.5,1.6,0.6,2.5c0.2,1.1,0.9,1.6,1.9,1.5c1.2-0.2,1.9,0.5,2.6,1.3c1.1,1.5,2,3,2.8,4.7c0.3,0.7,0.8,1.1,1.6,0.8 c0.7-0.3,1.1-0.9,0.7-1.6c-1.6-3.4-2.9-7-7.2-8c-1-4.2-1.9-5.4-5.3-6.4C49.8,74.5,49.1,71.5,46.7,69.2z M215.2,112.2 c-0.3-0.4-0.7-0.7-1.1-1c-0.7-0.5-1.3-0.3-1.8,0.3c-0.5,0.5-0.3,1.2,0.1,1.7c2.7,3.3,4.1,7.2,5.4,11.2c0.7,2.3,1,4.6,0.1,7 c-0.3,0.8-0.2,1.5,0.6,1.8c0.9,0.4,1.4-0.2,1.7-0.9c0.7-1.3,0.9-2.8,0.8-4.3C220.7,122.1,218.3,117,215.2,112.2z M140.2,213.6 c0.2,0.8,0.8,1.4,1.7,1.2c1-0.2,0.9-0.9,0.9-1.7c-0.5-6.5,2.6-11.2,7.5-15c0.8-0.6,2-1,1.3-2.2c-0.7-1.3-1.8-0.6-2.7,0 c-5.4,3.7-8.2,8.9-8.9,15.3C140.1,212,140,212.8,140.2,213.6z M200.2,120.9c0.8-0.9,2-1.2,3-1.6c0.7-0.3,1.2-0.6,1.7-1.2 c3.5-4.9,7.4-9.6,9.9-15.2c0.4-0.9,1.7-2,0.2-2.8c-1.3-0.7-1.8,0.8-2.4,1.6c0,0-0.1,0.1-0.1,0.1c-3.2,6.6-7.9,12.2-12.2,18 C200.2,120.3,199.9,120.5,200.2,120.9L200.2,120.9z M157.6,139.8c0.1,0.9,0.1,2,1.3,2c1.3,0,1.3-1.2,1.3-2.2 c-0.1-1.4,0.1-2.6,0.6-3.9c1.5-4,3.7-7.5,6.7-10.5c0.7-0.7,1.2-1.4,0.4-2.2c-0.8-0.8-1.5-0.4-2.2,0.3c-0.7,0.7-1.5,1.4-2.1,2.3 c-2.9,3.9-5.7,7.8-6,12.9C157.6,139,157.5,139.4,157.6,139.8z M209,153.6c-0.8-0.8-1.7-1.5-2.9-1.8c-0.7-0.2-1.4-0.1-1.7,0.7 c-0.3,0.7,0,1.3,0.7,1.7c3.8,2.1,5.5,5.7,6.4,9.7c0.3,1.5,0.5,3.1,0.7,4.7c0.1,0.8,0.5,1.6,1.5,1.5c0.9-0.1,1.1-0.8,1.1-1.6 c0-0.2,0-0.5,0-0.2C214.5,162.3,213,157.5,209,153.6z M117.2,178.3c0.8,0.2,1.3-0.3,1.5-1c0.6-1.8,1.9-3,3.4-4.1 c3.2-2.3,6.5-4.4,10.2-5.7c0.8-0.3,1.5-0.7,1.1-1.7c-0.3-0.9-1.1-0.8-1.8-0.7c-0.3,0-0.6,0.2-0.9,0.3c-4.3,1.9-8.5,4.2-12,7.3 c-1.3,1.1-2.2,2.6-2.5,4.3C116.2,177.7,116.5,178.2,117.2,178.3z M173.9,186.7c0.9,0.2,1.3-0.4,1.4-1.3c0.6-5.5,3.3-10,6.6-14.3 c0.6-0.7,1.2-1.4,0.3-2.2c-0.8-0.7-1.6-0.2-2.2,0.4c-1.4,1.4-2.3,3.1-3.3,4.8c-1.9,3.2-3.5,6.6-3.9,10.4 C172.7,185.5,172.8,186.5,173.9,186.7z M200.3,120.9C200.3,120.9,200.3,120.9,200.3,120.9L200.3,120.9 C200.2,120.9,200.3,120.9,200.3,120.9z" fill="inherit"/></g></svg>